<svg width="301" height="63" viewBox="0 0 301 63" fill="none" xmlns="http://www.w3.org/2000/svg">
<path d="M258.936 39.0238L257.992 38.0799L271.821 24.2503V23.9055L260.678 12.7596L261.622 11.8157L272.767 22.9593C273.382 23.5761 273.382 24.5775 272.767 25.1942L258.938 39.0238H258.936Z" fill="white"/>
<path d="M266.301 23.0855H251.225V21.7503H264.913L261.373 18.2111L262.317 17.2672L266.84 21.7901C267.059 22.0067 267.123 22.3317 267.006 22.6168C266.889 22.902 266.613 23.0855 266.303 23.0855" fill="white"/>
<path d="M262.316 30.8909L261.372 29.9469L264.912 26.4077H255.618V25.0725H266.302C266.609 25.0725 266.886 25.2582 267.005 25.5434C267.122 25.8286 267.058 26.1513 266.839 26.3702L262.319 30.8909H262.316Z" fill="white"/>
<path d="M288.295 17.2672L289.239 18.2111L285.699 21.7503H294.993V23.0855H284.309C284.002 23.0855 283.725 22.8998 283.606 22.6146C283.489 22.3295 283.553 22.0067 283.772 21.7879L288.293 17.2672H288.295Z" fill="white"/>
<path d="M275.307 22.0021C274.902 22.0021 274.498 21.8496 274.19 21.5401L260.361 7.71059L261.305 6.76666L275.134 20.5962H275.481L286.625 9.45255L287.569 10.3965L276.423 21.5423C276.116 21.8496 275.711 22.0044 275.307 22.0044" fill="white"/>
<path d="M277.06 15.8346L276.768 15.7749C276.485 15.6577 276.299 15.3814 276.299 15.0741V0H277.632V13.6858L281.172 10.1467L282.116 11.0906L277.595 15.6135C277.449 15.7594 277.254 15.8368 277.058 15.8368" fill="white"/>
<path d="M273.552 15.8346C273.355 15.8346 273.16 15.7572 273.017 15.6113L268.494 11.0884L269.438 10.1445L272.977 13.6837V4.39249H274.31V15.0763C274.31 15.3836 274.127 15.6599 273.841 15.7771L273.55 15.8368" fill="white"/>
<path d="M288.991 36.3423L277.848 25.1987C277.231 24.5841 277.231 23.5805 277.848 22.9659L291.677 9.13641L292.621 10.0803L278.792 23.9099V24.2547L289.935 35.4006L288.991 36.3445V36.3423Z" fill="white"/>
<path d="M288.295 30.8932L283.772 26.3703C283.556 26.1537 283.489 25.8287 283.609 25.5435C283.726 25.2584 284.002 25.0749 284.309 25.0749H299.386V26.4101H285.698L289.237 29.9493L288.293 30.8932H288.295Z" fill="white"/>
<path d="M289.306 41.3935L275.477 27.5639L275.304 27.491L275.132 27.5639L263.986 38.7076L263.042 37.7636L274.186 26.6178C274.484 26.3193 274.882 26.1558 275.302 26.1558C275.722 26.1558 276.122 26.3193 276.421 26.6178L290.25 40.4473L289.306 41.3912V41.3935Z" fill="white"/>
<path d="M274.098 60.0908C274.261 59.9273 274.348 59.704 274.334 59.4719C274.323 59.242 274.213 59.0275 274.034 58.8839L260.792 48.2L259.957 49.239L272.745 59.5581L269.606 63H271.494L274.1 60.0908H274.098Z" fill="white"/>
<path d="M277.867 59.558L290.658 49.2366L289.82 48.1977L276.578 58.8815C276.399 59.0252 276.289 59.2396 276.278 59.4695C276.267 59.6994 276.351 59.9249 276.514 60.0885L279.722 62.9954H281.61L277.867 59.5557V59.558Z" fill="white"/>
<path d="M272.975 53.7354L251.002 36.0086L250.164 37.0476L272.842 55.3425C273.006 55.4752 273.205 55.5437 273.406 55.5437C273.59 55.5437 273.773 55.4884 273.934 55.3735C274.182 55.1988 274.31 54.8982 274.31 54.5954V32.5755H272.975V53.7354Z" fill="white"/>
<path d="M299.608 36.0085L277.635 53.7331V32.5732H276.299V54.5908C276.299 54.8936 276.428 55.1965 276.675 55.3711C276.839 55.4861 277.022 55.5413 277.204 55.5413C277.405 55.5413 277.604 55.4728 277.769 55.3402L300.448 37.0452L299.61 36.0062L299.608 36.0085Z" fill="white"/>
<path d="M21.7341 32.5883L23.1688 34.0279L24.6035 32.5883L23.1688 31.1537L21.7341 32.5883Z" fill="white"/>
<path d="M24.604 32.5883L26.0387 34.0279L27.4733 32.5883L26.0387 31.1537L24.604 32.5883Z" fill="white"/>
<path d="M45.1846 25.5318C45.1846 26.198 45.0874 26.6795 44.8977 26.9762C44.708 27.268 44.2849 27.4139 43.6333 27.4139H34.4514V21.3299C34.8016 21.2327 35.2052 21.1403 35.6672 21.0576C36.1292 20.97 36.6156 20.8825 37.1311 20.8047C37.6514 20.7269 38.1669 20.6588 38.6825 20.615C39.2028 20.5664 39.6989 20.5469 40.1755 20.5469C41.1773 20.5469 41.9992 20.6442 42.6412 20.8436C43.288 21.043 43.7986 21.3396 44.1779 21.7384C44.5573 22.1372 44.8248 22.6333 44.9658 23.2315C45.1117 23.8248 45.1846 24.53 45.1846 25.3421V25.5318ZM15.2026 25.5318C15.2026 26.198 15.1053 26.6795 14.9156 26.9762C14.726 27.268 14.3029 27.4139 13.6512 27.4139H4.49366V21.3299C4.84382 21.2327 5.25233 21.1403 5.70948 21.0576C6.17149 20.97 6.65782 20.8825 7.16846 20.8047C7.67424 20.7269 8.19461 20.6588 8.71984 20.615C9.24508 20.5664 9.73627 20.5469 10.1983 20.5469C11.2001 20.5469 12.022 20.6442 12.664 20.8436C13.3108 21.043 13.8214 21.3396 14.2007 21.7384C14.5801 22.1372 14.8476 22.6333 14.9886 23.2315C15.1345 23.8248 15.2074 24.53 15.2074 25.3421V25.5318H15.2026ZM75.0694 27.4187H70.1964L69.7004 27.3701L69.1606 27.2242L68.7423 26.9762L68.577 26.6066V18.9469H66.5733V25.5318C66.5733 26.198 66.4809 26.6795 66.2912 26.9762C66.1016 27.268 65.6785 27.4139 65.0268 27.4139H60.6596C60.358 27.0345 60.1538 26.5531 60.0419 25.9841C59.9301 25.4102 59.8328 24.8023 59.7453 24.1603C59.6577 23.5184 59.5507 22.8716 59.4243 22.2296C59.2979 21.5877 59.0644 21.0089 58.7191 20.4886C58.3787 19.9731 57.9021 19.55 57.2893 19.2241C56.6766 18.8983 55.8547 18.7329 54.8236 18.7329C54.1574 18.7329 53.5738 18.7913 53.0729 18.9129C52.5719 19.0345 52.178 19.156 51.8911 19.2825L51.6868 20.8728C51.9397 20.795 52.4941 20.6199 52.9367 20.5129C53.3841 20.4059 53.9142 20.3524 54.5318 20.3524C55.2127 20.3524 55.7525 20.474 56.1416 20.7123C56.5307 20.9506 56.8322 21.2667 57.051 21.6558C57.265 22.0448 57.4109 22.4874 57.4887 22.9786C57.5665 23.4698 57.6395 23.9804 57.7027 24.5008C57.7659 25.026 57.8535 25.5415 57.9556 26.0522C58.0577 26.5628 58.2377 27.0151 58.4906 27.4139H48.798L48.2923 27.3652L47.767 27.2193L47.3585 26.9713L47.1932 26.6017V24.9287C47.1932 24.0534 47.1056 23.246 46.9306 22.5068C46.7555 21.7676 46.4248 21.1354 45.9433 20.6102C45.457 20.0849 44.7907 19.6764 43.9396 19.3797C43.0934 19.088 42.0041 18.9372 40.6667 18.9372C40.2047 18.9372 39.6891 18.9664 39.1201 19.0199C38.5511 19.0734 37.9773 19.1463 37.4034 19.2339C36.8295 19.3214 36.2849 19.4138 35.7596 19.5208C35.2344 19.6229 34.7967 19.7153 34.4514 19.7931V11.8271H32.4477V27.4041H27.4143L26.9133 27.3555L26.3784 27.2096L25.9601 26.9616L25.7948 26.592V18.9323H23.7911V25.5172C23.7911 26.1835 23.6987 26.6649 23.509 26.9616C23.3194 27.2534 22.8963 27.3993 22.2446 27.3993H18.8209L18.3151 27.3507L17.7898 27.2047L17.3813 26.9567L17.2111 26.5871V24.9142C17.2111 24.0388 17.1284 23.2315 16.9485 22.4922C16.7734 21.753 16.4427 21.1208 15.9613 20.5956C15.4798 20.0703 14.8087 19.6618 13.9624 19.3652C13.1114 19.0734 12.022 18.9226 10.6895 18.9226C10.2275 18.9226 9.71681 18.9518 9.15267 19.0053C8.58854 19.0588 8.01953 19.1317 7.45053 19.2193C6.88153 19.3068 6.33198 19.3992 5.80674 19.5062C5.28151 19.6083 4.84382 19.7007 4.49853 19.7785V11.8125H2.49486V27.3896H0.233437L0 29.0868H14.0889C14.9156 29.0868 15.5333 28.9799 15.9467 28.7659C16.36 28.547 16.6616 28.3136 16.8512 28.0607C17.1041 28.44 17.4154 28.7075 17.7753 28.8583C18.1351 29.009 18.5485 29.0868 19.0105 29.0868H22.692C23.5188 29.0868 24.1413 28.9799 24.5547 28.7659C24.968 28.547 25.2696 28.3136 25.4592 28.0607C25.7121 28.44 26.0185 28.7075 26.3784 28.8583C26.7383 29.009 27.1468 29.0868 27.6088 29.0868H44.0758C44.8977 29.0868 45.5202 28.9799 45.9336 28.7659C46.3421 28.547 46.6436 28.3136 46.8382 28.0607C47.0959 28.44 47.4023 28.7075 47.7622 28.8583C48.1221 29.009 48.5354 29.0868 48.9974 29.0868H65.4839C66.3107 29.0868 66.9332 28.9799 67.3466 28.7659C67.7599 28.547 68.0615 28.3136 68.2511 28.0607C68.504 28.44 68.8104 28.7075 69.1703 28.8583C69.5302 29.009 69.9387 29.0868 70.4007 29.0868H77.0877V11.8417H75.084V27.4187H75.0694Z" fill="white"/>
<path d="M83.6637 11.8417H81.66V29.0869H83.6637V11.8417Z" fill="white"/>
<path d="M95.0625 27.4141H93.8029C93.1852 27.4141 92.6357 27.3557 92.1396 27.239C91.6484 27.1174 91.2253 26.9229 90.8703 26.6505C90.5104 26.3831 90.2381 26.028 90.0533 25.5903C89.8588 25.1527 89.7664 24.6177 89.7664 23.9806C89.7664 23.1198 89.9123 22.4487 90.2041 21.9623C90.4958 21.4809 90.8655 21.1113 91.308 20.8681C91.7506 20.6201 92.232 20.4742 92.7573 20.4158C93.2776 20.3623 93.7737 20.3332 94.2308 20.3332L94.6588 20.3429L95.0625 20.3769V27.4092V27.4141ZM94.1871 18.7574C93.0442 18.7574 92.0715 18.8888 91.2594 19.1368C90.4521 19.3897 89.7858 19.7496 89.2703 20.2116C88.7548 20.6736 88.3755 21.2231 88.1274 21.8602C87.8794 22.4973 87.7627 23.2025 87.7627 23.9806C87.7627 24.5058 87.8308 25.0651 87.9767 25.6633C88.1226 26.2566 88.3998 26.811 88.8229 27.3217C89.2411 27.8323 89.8393 28.2554 90.598 28.5861C91.3615 28.9168 92.3731 29.0822 93.6278 29.0822H95.0333C94.9846 29.9916 94.7512 30.6433 94.3281 31.0518C93.9099 31.4554 93.2193 31.6597 92.2661 31.6597H89.3578V33.2597H92.2661C93.2193 33.2597 94.0071 33.1479 94.6345 32.9242C95.2619 32.7004 95.7482 32.3795 96.1032 31.9612C96.4582 31.5381 96.7062 31.0275 96.8473 30.4244C96.9883 29.8214 97.0564 29.1357 97.0564 28.3721V18.952C96.5798 18.9179 96.0886 18.8839 95.5682 18.8353C95.0527 18.7866 94.5907 18.7623 94.1773 18.7623" fill="white"/>
<path d="M114.821 20.4498C114.349 19.9732 113.683 19.6036 112.827 19.341C111.966 19.0784 110.862 18.9471 109.51 18.9471H107.458L107.22 20.5471H109.369C110.464 20.5471 111.324 20.6541 111.942 20.868C112.564 21.0869 113.031 21.3787 113.338 21.7532C113.644 22.1276 113.844 22.575 113.921 23.1003C113.999 23.6255 114.043 24.1994 114.043 24.817V27.4189H105.98V29.0918H116.047V24.4182C116.047 23.5915 115.959 22.8425 115.789 22.1763C115.614 21.51 115.293 20.9361 114.821 20.4595" fill="white"/>
<path d="M163.065 27.4139H158.63C158.197 26.3829 157.939 25.5707 157.852 24.9823C157.764 24.3938 157.72 23.961 157.72 23.6935C157.72 22.4728 158.1 21.6071 158.853 21.1062C159.612 20.6053 160.716 20.3573 162.18 20.3573L162.608 20.3816L163.06 20.4302V27.4139H163.065ZM140.31 25.5318C140.31 26.1981 140.217 26.6795 140.028 26.9762C139.838 27.2728 139.415 27.4139 138.763 27.4139H129.581V21.3348C129.932 21.2375 130.335 21.1451 130.797 21.0576C131.259 20.9749 131.746 20.8874 132.261 20.8096C132.777 20.7318 133.297 20.6637 133.812 20.615C134.328 20.5664 134.829 20.5469 135.301 20.5469C136.302 20.5469 137.124 20.6442 137.771 20.8436C138.413 21.043 138.924 21.3397 139.308 21.7384C139.687 22.1372 139.955 22.6333 140.096 23.2315C140.242 23.8248 140.31 24.53 140.31 25.3421V25.5318ZM161.465 18.7573C160.463 18.7573 159.593 18.8886 158.863 19.1366C158.134 19.3895 157.526 19.7396 157.049 20.1773C156.573 20.615 156.217 21.1305 155.989 21.7384C155.76 22.3415 155.644 23.0029 155.644 23.7178C155.644 24.2576 155.712 24.8509 155.848 25.4832C155.984 26.1203 156.183 26.7622 156.456 27.4139H151.879L151.379 27.3653L150.844 27.2242L150.425 26.9713L150.26 26.6017V18.9469H148.256V25.5318C148.256 26.1981 148.164 26.6795 147.969 26.9762C147.78 27.2728 147.357 27.4139 146.705 27.4139H143.928L143.422 27.3653L142.897 27.2242L142.488 26.9713L142.323 26.6017V24.9336C142.323 24.0582 142.236 23.2509 142.061 22.5117C141.885 21.7725 141.555 21.1403 141.073 20.6102C140.592 20.0849 139.926 19.6764 139.074 19.3846C138.223 19.088 137.134 18.9421 135.801 18.9421C135.339 18.9421 134.824 18.9713 134.255 19.0248C133.686 19.0782 133.117 19.1512 132.543 19.2387C131.969 19.3263 131.425 19.4187 130.899 19.5257C130.374 19.6229 129.941 19.7202 129.591 19.798V18.9372H127.587V27.4042H122.972C122.272 27.4042 121.82 27.2437 121.61 26.9178C121.406 26.592 121.304 26.1154 121.304 25.4978V11.832H119.3V25.7847C119.3 26.9762 119.612 27.8224 120.234 28.3282C120.852 28.8291 121.669 29.0771 122.69 29.0771H139.211C140.037 29.0771 140.655 28.9701 141.068 28.7561C141.482 28.5422 141.783 28.3087 141.973 28.051C142.226 28.4352 142.537 28.6978 142.897 28.8534C143.257 29.009 143.67 29.0771 144.132 29.0771H147.172C147.999 29.0771 148.616 28.9701 149.03 28.7561C149.443 28.5422 149.744 28.3087 149.934 28.051C150.187 28.4352 150.498 28.6978 150.853 28.8534C151.213 29.0042 151.617 29.0771 152.084 29.0771H165.083V18.9421C164.573 18.908 164.038 18.874 163.473 18.8254C162.909 18.7767 162.248 18.7524 161.484 18.7524" fill="white"/>
<path d="M179.192 27.4139H174.824V15.9901H172.821V27.4139H167.933V29.082H181.195V11.8417H179.192V27.4139Z" fill="white"/>
<path d="M187.776 11.8417H185.773V29.0869H187.776V11.8417Z" fill="white"/>
<path d="M204.593 25.42C204.471 25.8285 204.296 26.1884 204.058 26.5094C203.819 26.8255 203.518 27.0735 203.139 27.2583C202.764 27.4383 202.321 27.5307 201.816 27.5307C201.31 27.5307 200.867 27.4383 200.493 27.2583C200.118 27.0735 199.812 26.8255 199.574 26.5094C199.335 26.1884 199.156 25.8285 199.034 25.42C198.917 25.0164 198.854 24.5835 198.854 24.1215C198.854 23.5963 198.922 23.1051 199.058 22.6528C199.194 22.2005 199.389 21.8066 199.642 21.4759C199.895 21.1403 200.206 20.8777 200.571 20.6881C200.935 20.4984 201.349 20.4011 201.811 20.4011C202.273 20.4011 202.686 20.4984 203.051 20.6881C203.416 20.8777 203.727 21.1403 203.985 21.4759C204.238 21.8066 204.432 22.2005 204.568 22.6528C204.704 23.1051 204.773 23.5963 204.773 24.1215C204.773 24.5835 204.709 25.0164 204.593 25.42ZM205.57 20.3525C205.147 19.8613 204.622 19.4674 203.994 19.1707C203.367 18.8789 202.638 18.733 201.811 18.733C200.984 18.733 200.259 18.8789 199.632 19.1707C199.005 19.4674 198.48 19.8613 198.056 20.3525C197.633 20.8437 197.317 21.4127 197.103 22.0595C196.889 22.7063 196.782 23.3774 196.782 24.0778C196.782 24.6516 196.875 25.2401 197.059 25.8529C197.239 26.4705 197.536 27.02 197.94 27.5112C198.343 28.0024 198.864 28.4109 199.501 28.727C200.138 29.048 200.906 29.2037 201.816 29.2037C202.725 29.2037 203.494 29.0432 204.131 28.727C204.768 28.4109 205.283 28.0024 205.692 27.5112C206.095 27.02 206.387 26.4656 206.572 25.8529C206.752 25.2449 206.844 24.6516 206.844 24.0778C206.844 23.3774 206.737 22.7063 206.523 22.0595C206.309 21.4127 205.988 20.8437 205.57 20.3525Z" fill="white"/>
<path d="M211.45 28.6784C211.45 29.6949 211.27 30.4341 210.906 30.8961C210.546 31.3581 209.875 31.5867 208.897 31.5867H208.634V33.2597H209.062C209.938 33.2597 210.658 33.1429 211.236 32.9144C211.81 32.6809 212.258 32.3648 212.583 31.9612C212.914 31.5526 213.138 31.0712 213.264 30.5022C213.396 29.938 213.459 29.3204 213.459 28.6541V18.9471H211.455V28.6784H211.45Z" fill="white"/>
<path d="M219.465 11.8417H217.461V29.0869H219.465V11.8417Z" fill="white"/>
<path d="M224.468 28.6784C224.468 29.6949 224.288 30.4341 223.924 30.8961C223.564 31.3581 222.893 31.5867 221.915 31.5867H221.653V33.2597H222.081C222.956 33.2597 223.681 33.1429 224.254 32.9144C224.828 32.6809 225.276 32.3648 225.602 31.9612C225.927 31.5526 226.151 31.0712 226.278 30.5022C226.409 29.938 226.472 29.3204 226.472 28.6541V18.9471H224.468V28.6784Z" fill="white"/>
<path d="M236.871 27.4141H235.611C234.994 27.4141 234.439 27.3557 233.948 27.2341C233.457 27.1125 233.034 26.9229 232.679 26.6505C232.319 26.3782 232.047 26.028 231.857 25.5903C231.667 25.1527 231.575 24.6128 231.575 23.9806C231.575 23.1198 231.721 22.4487 232.013 21.9672C232.304 21.4809 232.674 21.1161 233.117 20.8681C233.559 20.6201 234.041 20.4742 234.566 20.4158C235.086 20.3623 235.582 20.3332 236.039 20.3332L236.467 20.3477L236.871 20.3818V27.4141ZM237.391 18.8304C236.876 18.7818 236.414 18.7574 236.001 18.7574C234.863 18.7574 233.88 18.8888 233.073 19.1416C232.266 19.3945 231.599 19.7544 231.084 20.2164C230.568 20.6784 230.189 21.2231 229.941 21.8602C229.698 22.4973 229.576 23.2073 229.576 23.9806C229.576 24.5058 229.644 25.07 229.79 25.6633C229.936 26.2566 230.213 26.811 230.636 27.3217C231.059 27.8323 231.653 28.2554 232.411 28.5861C233.175 28.9217 234.187 29.087 235.441 29.087H236.847C236.798 29.9916 236.565 30.6481 236.142 31.0518C235.718 31.4554 235.033 31.6597 234.08 31.6597H231.171V33.2597H234.08C235.033 33.2597 235.821 33.1479 236.448 32.9242C237.075 32.7004 237.567 32.3795 237.917 31.9564C238.272 31.5381 238.52 31.0226 238.656 30.4196C238.802 29.8165 238.87 29.1308 238.87 28.3721V18.9471C238.393 18.9131 237.902 18.879 237.382 18.8304" fill="white"/>
<path d="M146.39 14.9688L147.829 16.4035L149.259 14.9688L147.829 13.5293L146.39 14.9688Z" fill="white"/>
<path d="M150.696 13.5254L149.262 14.9594L150.696 16.3934L152.13 14.9594L150.696 13.5254Z" fill="white"/>
<path d="M64.7296 14.9688L66.1643 16.4035L67.5941 14.9688L66.1643 13.5293L64.7296 14.9688Z" fill="white"/>
<path d="M54.1719 14.9688L55.6065 16.4035L57.0412 14.9688L55.6065 13.5293L54.1719 14.9688Z" fill="white"/>
<path d="M69.0343 13.5292L67.6003 14.9632L69.0343 16.3972L70.4683 14.9632L69.0343 13.5292Z" fill="white"/>
<path d="M160.827 13.5262L159.393 14.9602L160.827 16.3942L162.261 14.9602L160.827 13.5262Z" fill="white"/>
<path d="M162.263 14.9688L163.693 16.4035L165.128 14.9688L163.693 13.5293L162.263 14.9688Z" fill="white"/>
<path d="M198.942 14.9688L200.381 16.4035L201.811 14.9688L200.381 13.5293L198.942 14.9688Z" fill="white"/>
<path d="M201.811 14.9688L203.246 16.4035L204.676 14.9688L203.246 13.5293L201.811 14.9688Z" fill="white"/>
<path d="M225.405 13.5275L223.971 14.9615L225.405 16.3956L226.839 14.9615L225.405 13.5275Z" fill="white"/>
<path d="M1.75078 41.3228L4.55688 47.2365L7.2949 41.3228H9.06027V51.4676H7.38244V44.304L5.21343 49.0457H3.87603L1.6681 44.3721V51.4676H0V41.3228H1.75078Z" fill="white"/>
<path d="M13.0383 41.3228H11.2583V51.4676H13.0383V41.3228Z" fill="white"/>
<path d="M16.798 41.3228L21.1896 48.5642V41.3228H22.8285V51.4676H21.2576L16.871 44.231V51.4676H15.2321V41.3228H16.798Z" fill="white"/>
<path d="M26.8012 41.3228H25.0212V51.4676H26.8012V41.3228Z" fill="white"/>
<path d="M31.5484 51.6135C30.9794 51.6135 30.4249 51.5697 29.89 51.4822C29.355 51.3995 28.893 51.2876 28.5137 51.1563L28.8103 49.7606C29.2091 49.8676 29.6322 49.9551 30.0748 50.0329C30.5222 50.1059 30.9891 50.1448 31.4705 50.1448C32.2584 50.1448 32.8177 50.0183 33.1484 49.7703C33.4839 49.5174 33.6444 49.1089 33.6444 48.5496L33.5909 48.0438L33.3769 47.6256L32.9441 47.3144C32.7593 47.2317 32.521 47.1685 32.2243 47.1295L31.0863 46.9691C30.279 46.8572 29.6663 46.5606 29.2432 46.0888C28.8201 45.6122 28.6109 44.9946 28.6109 44.2359V44.0949C28.6109 43.0882 28.927 42.349 29.5641 41.8869C30.2012 41.4201 31.1642 41.1915 32.4578 41.1915C32.9636 41.1915 33.4304 41.2255 33.8681 41.2985C34.3058 41.3666 34.7387 41.4736 35.1666 41.6195L34.8797 43.0006C34.5587 42.8985 34.1988 42.811 33.8 42.7478C33.4013 42.6797 32.9587 42.6505 32.4772 42.6505C31.7186 42.6505 31.169 42.7575 30.8237 42.9812C30.4784 43.2 30.3131 43.5794 30.3131 44.1192C30.3131 44.5471 30.4201 44.8584 30.6438 45.0529C30.8626 45.2475 31.2274 45.3885 31.738 45.4712L32.8468 45.656C33.2262 45.7241 33.5763 45.8165 33.8973 45.9332C34.2134 46.0548 34.4858 46.2153 34.7143 46.4244C34.9429 46.6335 35.118 46.901 35.2396 47.2219C35.3612 47.5429 35.4244 47.9417 35.4244 48.4037V48.5496C35.4244 50.6019 34.1307 51.6281 31.5484 51.6281" fill="white"/>
<path d="M44.6884 41.3228L44.4938 42.7915H41.5418V51.4676H39.7619V42.7915H36.6105L36.7953 41.3228H44.6884Z" fill="white"/>
<path d="M48.0204 46.1132H49.9123C50.4618 46.1132 50.8801 45.9916 51.167 45.7436C51.4491 45.4955 51.5901 45.1016 51.5901 44.5618V44.3624C51.5901 43.3119 51.0551 42.7818 49.9803 42.7818H48.0156V46.1132H48.0204ZM53.3749 44.591C53.3749 45.301 53.2096 45.8992 52.8837 46.3709C52.5579 46.8475 52.0813 47.1782 51.4539 47.3728L53.7348 51.4774H51.8138L49.7323 47.5721H48.0253V51.4774H46.2745V41.3326H50.35C50.8898 41.3326 51.3567 41.4104 51.7409 41.566C52.125 41.7265 52.4363 41.9356 52.6795 42.2031C52.9226 42.4657 53.1026 42.777 53.2144 43.1368C53.3311 43.4919 53.3846 43.8761 53.3846 44.2846V44.5958L53.3749 44.591Z" fill="white"/>
<path d="M58.4952 45.9137L60.8053 41.3228H62.6727L59.3366 47.3824V51.4676H57.5566V47.3824L54.2642 41.3228H56.2289L58.4952 45.9137Z" fill="white"/>
<path d="M71.5051 50.2031C71.865 50.2031 72.1859 50.1594 72.468 50.0718C72.7452 49.9892 72.9835 49.8238 73.1732 49.5904C73.3629 49.3521 73.5088 49.0262 73.6109 48.6129C73.7081 48.1995 73.7616 47.6694 73.7616 47.0226V45.7678C73.7616 45.1162 73.713 44.5764 73.6255 44.163C73.5331 43.7545 73.3969 43.4286 73.2121 43.1952C73.0224 42.9617 72.789 42.8013 72.5069 42.7186C72.2249 42.6359 71.8893 42.5873 71.5099 42.5873C71.1306 42.5873 70.8242 42.631 70.5422 42.7186C70.2601 42.8061 70.0218 42.9666 69.8321 43.1952C69.6425 43.4286 69.4966 43.7545 69.3993 44.163C69.302 44.5764 69.2485 45.1113 69.2485 45.7678V47.0226C69.2485 47.6742 69.2972 48.2092 69.3944 48.6177C69.4868 49.0262 69.6327 49.3472 69.8175 49.5855C70.0072 49.8238 70.2406 49.9843 70.5227 50.067C70.7999 50.1497 71.1306 50.1983 71.5148 50.1983M71.5002 41.1088C72.327 41.1088 73.003 41.2256 73.5282 41.4493C74.0534 41.6778 74.4717 41.9988 74.7781 42.4122C75.0796 42.8256 75.2936 43.3168 75.4103 43.8906C75.5319 44.4596 75.5902 45.0919 75.5902 45.7824V47.008C75.5902 47.6986 75.527 48.3356 75.4054 48.9095C75.279 49.4834 75.0699 49.9746 74.7635 50.3831C74.4571 50.7916 74.0437 51.1077 73.5088 51.3363C72.9787 51.5649 72.3075 51.6767 71.5002 51.6767C70.6929 51.6767 70.0121 51.5649 69.482 51.3363C68.9567 51.1077 68.5385 50.7867 68.237 50.3734C67.9306 49.9648 67.7215 49.4688 67.6047 48.8998C67.4832 48.3308 67.4248 47.6986 67.4248 47.008V45.7824C67.4248 45.0919 67.488 44.4548 67.6145 43.8809C67.7458 43.307 67.9646 42.8158 68.271 42.4025C68.5774 41.9891 68.9956 41.6681 69.516 41.4493C70.0364 41.2256 70.6978 41.1137 71.4954 41.1137" fill="white"/>
<path d="M83.838 41.3228L83.6386 42.7915H79.32V45.7678H83.2106L83.0112 47.2365H79.32V51.4676H77.5449V41.3228H83.838Z" fill="white"/>
<path d="M95.4901 41.3228L95.2907 42.7477H90.7046V45.5684H95.0329L94.8336 46.9934H90.7046V50.0426H95.4901L95.2907 51.4676H88.9247V41.3228H95.4901Z" fill="white"/>
<path d="M101.132 51.6136C100.296 51.6136 99.6005 51.5163 99.051 51.3218C98.5014 51.1273 98.0637 50.8404 97.7427 50.4562C97.4218 50.072 97.1932 49.5905 97.0667 49.0069C96.9403 48.4282 96.8771 47.7571 96.8771 46.9984V45.9333C96.8771 45.2184 96.9452 44.5716 97.0813 43.988C97.2175 43.4044 97.4558 42.9084 97.7865 42.495C98.1172 42.0816 98.5646 41.7606 99.1336 41.5321C99.7026 41.3035 100.403 41.1868 101.249 41.1868C101.658 41.1868 102.052 41.2208 102.441 41.284C102.825 41.3521 103.165 41.4348 103.472 41.5418L103.175 42.923C102.956 42.8549 102.698 42.7965 102.397 42.743C102.1 42.6944 101.779 42.6652 101.449 42.6652C100.952 42.6652 100.534 42.7138 100.189 42.8062C99.8437 42.9035 99.5567 43.0689 99.333 43.312C99.1093 43.5503 98.9488 43.8908 98.8516 44.3139C98.7543 44.7418 98.7008 45.2914 98.7008 45.9528V46.9206C98.7008 47.5722 98.7446 48.1121 98.837 48.5303C98.9294 48.9485 99.0801 49.2744 99.299 49.5127C99.5178 49.751 99.8048 49.9115 100.165 49.999C100.525 50.0817 100.972 50.1303 101.502 50.1303C101.779 50.1303 102.091 50.1109 102.441 50.0768C102.791 50.0428 103.122 49.999 103.438 49.9407L103.156 51.3656C102.844 51.4434 102.504 51.5018 102.144 51.5455C101.784 51.5893 101.449 51.6088 101.132 51.6088" fill="white"/>
<path d="M108.909 50.2031C109.269 50.2031 109.59 50.1594 109.872 50.0718C110.154 49.9892 110.387 49.8238 110.577 49.5904C110.767 49.3521 110.912 49.0262 111.015 48.6129C111.112 48.1995 111.165 47.6694 111.165 47.0226V45.7678C111.165 45.1162 111.117 44.5764 111.029 44.163C110.937 43.7545 110.801 43.4286 110.616 43.1952C110.426 42.9617 110.193 42.8013 109.911 42.7186C109.629 42.6359 109.293 42.5873 108.914 42.5873C108.534 42.5873 108.233 42.631 107.946 42.7186C107.664 42.8013 107.425 42.9666 107.236 43.1952C107.046 43.4286 106.9 43.7545 106.803 44.163C106.706 44.5764 106.652 45.1113 106.652 45.7678V47.0226C106.652 47.6742 106.701 48.2092 106.798 48.6177C106.891 49.0262 107.036 49.3472 107.221 49.5855C107.411 49.8238 107.644 49.9843 107.926 50.067C108.208 50.1497 108.534 50.1983 108.919 50.1983M108.904 41.1088C109.731 41.1088 110.407 41.2256 110.932 41.4493C111.457 41.6778 111.875 41.9988 112.182 42.4122C112.483 42.8256 112.697 43.3168 112.814 43.8906C112.936 44.4596 112.994 45.0919 112.994 45.7824V47.008C112.994 47.6986 112.931 48.3356 112.809 48.9095C112.688 49.4834 112.474 49.9746 112.167 50.3831C111.861 50.7916 111.447 51.1077 110.912 51.3363C110.382 51.5649 109.711 51.6767 108.904 51.6767C108.097 51.6767 107.416 51.5649 106.886 51.3363C106.356 51.1077 105.942 50.7867 105.641 50.3734C105.334 49.9648 105.125 49.4688 105.008 48.8998C104.887 48.3308 104.828 47.6986 104.828 47.008V45.7824C104.828 45.0919 104.892 44.4548 105.018 43.8809C105.149 43.307 105.368 42.8158 105.675 42.4025C105.981 41.9891 106.399 41.6681 106.92 41.4493C107.445 41.2256 108.101 41.1137 108.899 41.1137" fill="white"/>
<path d="M116.515 41.3228L120.902 48.5642V41.3228H122.541V51.4676H120.975L116.583 44.231V51.4676H114.944V41.3228H116.515Z" fill="white"/>
<path d="M128.609 50.2031C128.969 50.2031 129.29 50.1594 129.572 50.0718C129.849 49.9892 130.082 49.8238 130.277 49.5904C130.466 49.3521 130.612 49.0262 130.715 48.6129C130.812 48.1995 130.865 47.6694 130.865 47.0226V45.7678C130.865 45.1162 130.817 44.5764 130.729 44.163C130.637 43.7545 130.505 43.4286 130.316 43.1952C130.131 42.9617 129.897 42.8013 129.611 42.7186C129.324 42.6359 128.993 42.5873 128.614 42.5873C128.234 42.5873 127.928 42.631 127.646 42.7186C127.364 42.8061 127.125 42.9666 126.936 43.1952C126.746 43.4286 126.6 43.7545 126.503 44.163C126.406 44.5764 126.352 45.1113 126.352 45.7678V47.0226C126.352 47.6742 126.401 48.2092 126.493 48.6177C126.59 49.0262 126.732 49.3472 126.921 49.5855C127.111 49.8238 127.344 49.9843 127.626 50.067C127.904 50.1497 128.234 50.1983 128.618 50.1983M128.604 41.1088C129.431 41.1088 130.107 41.2256 130.632 41.4493C131.157 41.6778 131.575 41.9988 131.882 42.4122C132.183 42.8256 132.392 43.3168 132.514 43.8906C132.631 44.4596 132.694 45.0919 132.694 45.7824V47.008C132.694 47.6986 132.631 48.3356 132.509 48.9095C132.387 49.4834 132.174 49.9746 131.867 50.3831C131.561 50.7916 131.142 51.1077 130.612 51.3363C130.082 51.5649 129.411 51.6767 128.604 51.6767C127.797 51.6767 127.116 51.5649 126.586 51.3363C126.056 51.1077 125.642 50.7867 125.341 50.3734C125.034 49.9648 124.825 49.4688 124.704 48.8998C124.587 48.3308 124.528 47.6986 124.528 47.008V45.7824C124.528 45.0919 124.592 44.4548 124.723 43.8809C124.849 43.307 125.068 42.8158 125.375 42.4025C125.681 41.9891 126.099 41.6681 126.62 41.4493C127.14 41.2304 127.801 41.1137 128.599 41.1137" fill="white"/>
<path d="M136.4 41.3228L139.206 47.2365L141.944 41.3228H143.704V51.4676H142.026V44.304L139.862 49.0457H138.52L136.312 44.3721V51.4676H134.644V41.3228H136.4Z" fill="white"/>
<path d="M149.486 45.9137L151.792 41.3228H153.659L150.328 47.3824V51.4676H148.548V47.3824L145.255 41.3228H147.22L149.486 45.9137Z" fill="white"/>
<path d="M173.57 46.2979H175.321C175.89 46.2979 176.313 46.1666 176.595 45.9089C176.872 45.656 177.013 45.2474 177.013 44.6979V44.3672C177.013 43.8274 176.882 43.4189 176.624 43.1368C176.361 42.8596 175.948 42.7186 175.374 42.7186H173.565V46.293L173.57 46.2979ZM173.57 47.6937V51.4676H171.79V41.3228H175.778C176.318 41.3228 176.78 41.4006 177.159 41.5514C177.538 41.7021 177.849 41.9161 178.093 42.1884C178.336 42.4559 178.516 42.772 178.628 43.1319C178.744 43.4967 178.803 43.8906 178.803 44.3186V44.659C178.803 45.6365 178.521 46.3903 177.961 46.9107C177.402 47.4311 176.58 47.6937 175.496 47.6937H173.575H173.57Z" fill="white"/>
<path d="M182.305 41.3228V49.9891H186.823L186.623 51.4676H180.525V41.3228H182.305Z" fill="white"/>
<path d="M191 47.368H193.694L192.352 43.064L191 47.368ZM194.146 48.7929H190.557L189.716 51.4726H187.936L191.398 41.3278H193.305L196.84 51.4726H194.988L194.146 48.7929Z" fill="white"/>
<path d="M199.992 41.3228L204.384 48.5642V41.3228H206.023V51.4676H204.452L200.065 44.231V51.4676H198.427V41.3228H199.992Z" fill="white"/>
<path d="M209.787 41.3228L214.174 48.5642V41.3228H215.813V51.4676H214.242L209.855 44.231V51.4676H208.216V41.3228H209.787Z" fill="white"/>
<path d="M219.786 41.3228H218.006V51.4676H219.786V41.3228Z" fill="white"/>
<path d="M223.55 41.3228L227.937 48.5642V41.3228H229.576V51.4676H228.005L223.618 44.231V51.4676H221.979V41.3228H223.55Z" fill="white"/>
<path d="M236.355 42.6652C235.81 42.6652 235.353 42.7138 234.974 42.8111C234.595 42.9035 234.283 43.0737 234.05 43.3218C233.812 43.5698 233.637 43.9053 233.53 44.3333C233.423 44.7613 233.364 45.3011 233.364 45.9576V46.9108C233.364 47.5577 233.413 48.0878 233.51 48.506C233.603 48.9242 233.758 49.2549 233.972 49.4981C234.186 49.7364 234.463 49.9066 234.804 49.9942C235.149 50.0866 235.567 50.1303 236.073 50.1303L236.637 50.1157L237.201 50.0476V47.3534H235.747L235.917 45.9576H238.879V51.1711C238.548 51.2926 238.101 51.3996 237.547 51.4823C236.987 51.565 236.414 51.6088 235.815 51.6088C234.935 51.6088 234.21 51.4969 233.656 51.2732C233.097 51.0495 232.664 50.7334 232.353 50.3249C232.041 49.9163 231.827 49.43 231.711 48.8659C231.599 48.3017 231.541 47.6744 231.541 46.9935V45.909C231.541 45.2184 231.613 44.5765 231.755 43.9929C231.9 43.4093 232.144 42.9132 232.489 42.4999C232.834 42.0865 233.306 41.7655 233.904 41.5321C234.502 41.2986 235.256 41.1868 236.17 41.1868C236.637 41.1868 237.094 41.2257 237.547 41.3083C237.999 41.3862 238.364 41.4834 238.651 41.5856L238.339 42.9521C238.072 42.8743 237.775 42.8111 237.449 42.7527C237.119 42.6992 236.759 42.6701 236.36 42.6701" fill="white"/>
<path d="M162.404 46.7794C162.107 46.7794 161.786 46.794 161.456 46.8232C161.139 46.8524 160.848 46.9253 160.58 47.042L159.948 47.5235C159.792 47.7229 159.714 48.0098 159.714 48.3746C159.714 48.7393 159.802 49.0554 159.977 49.2548C160.167 49.4737 160.4 49.6439 160.682 49.7509C160.974 49.8676 161.3 49.9406 161.635 49.96C161.995 49.9843 162.331 49.9989 162.642 49.9989H163.795V46.7746H162.404V46.7794ZM161.932 51.4628C161.504 51.4628 161.057 51.4287 160.604 51.3558C160.142 51.2828 159.71 51.1369 159.325 50.9229C158.931 50.7041 158.606 50.4026 158.358 50.0184C158.105 49.6293 157.978 49.1235 157.978 48.5156C157.978 48.1217 158.042 47.7618 158.168 47.4506C158.294 47.1393 158.469 46.8621 158.688 46.6433C158.907 46.4244 159.165 46.2396 159.466 46.1034L159.642 46.0256L159.082 45.6463C158.888 45.4566 158.722 45.2183 158.601 44.9314C158.479 44.6445 158.416 44.2894 158.416 43.8712C158.416 43.3897 158.528 42.9666 158.747 42.6116C158.961 42.2663 159.233 41.9843 159.564 41.7605C159.894 41.5417 160.254 41.3812 160.648 41.2791C161.037 41.1818 161.421 41.1332 161.786 41.1332C162.088 41.1332 162.394 41.1526 162.686 41.1867C162.983 41.2256 163.221 41.2499 163.605 41.3569L163.916 41.4639L163.615 42.8548L163.464 42.8061L162.725 42.6408L162.005 42.5776L161.295 42.6554L160.682 42.8985L160.259 43.3314C160.152 43.5064 160.104 43.7302 160.104 44.0025C160.104 44.3089 160.172 44.5521 160.308 44.7174L160.857 45.1357C161.096 45.2378 161.353 45.3059 161.635 45.3399C161.927 45.3739 162.2 45.3934 162.452 45.3934H163.804V43.6037H165.57V45.3934H167.335L167.048 46.7697H165.57V51.4676H161.937L161.932 51.4628Z" fill="white"/>
</svg>
